<?xml version="1.0" encoding="utf-8"?>
<!-- Generator: Adobe Illustrator 22.0.1, SVG Export Plug-In . SVG Version: 6.00 Build 0)  -->
<svg version="1.1" id="레이어_1" xmlns="http://www.w3.org/2000/svg" xmlns:xlink="http://www.w3.org/1999/xlink" x="0px"
	 y="0px" viewBox="0 0 166.6 174.9" style="enable-background:new 0 0 166.6 174.9;" xml:space="preserve">
<style type="text/css">
	.st0{fill:url(#SVGID_1_);}
</style>
<linearGradient id="SVGID_1_" gradientUnits="userSpaceOnUse" x1="-1.3803" y1="134.1622" x2="149.3837" y2="47.1186">
	<stop  offset="0" style="stop-color:#0002FF"/>
	<stop  offset="1" style="stop-color:#2AFFFC"/>
</linearGradient>
<path class="st0" d="M113,92.3c-1.4,0-2.5-1.1-2.5-2.5l0-3.8c0-1.4,1.1-2.5,2.5-2.5l52.2,0.5C155.1,33.6,94.2-15.1,57,4.4
	c-59,31-57,113-57,113s-5,91,115,44c40.1-15.7,53.5-41.9,51.4-68.6L113,92.3z M62.1,74.6c0.1-7.6,6.3-13.8,13.9-13.7l15.1,0.1
	c7.6,0.1,13.8,6.3,13.7,13.9l-0.2,25.1c-0.1,7.6-6.3,13.8-13.9,13.7l-15.1-0.1c-7.6-0.1-13.8-6.3-13.7-13.9L62.1,74.6z M114.5,132.9
	H50.2c-2.2,0-4-1.8-4-4s1.8-4,4-4h64.3c2.2,0,4,1.8,4,4S116.7,132.9,114.5,132.9z"/>
</svg>
